<?xml version="1.0" standalone="no"?>
<!DOCTYPE svg PUBLIC "-//W3C//DTD SVG 20010904//EN"
 "http://www.w3.org/TR/2001/REC-SVG-20010904/DTD/svg10.dtd">
<svg version="1.0" xmlns="http://www.w3.org/2000/svg"
 width="546.000000pt" height="546.000000pt" viewBox="0 0 546.000000 546.000000"
 preserveAspectRatio="xMidYMid meet">

<g transform="translate(0.000000,546.000000) scale(0.100000,-0.100000)"
fill="#0f172a" stroke="none">
<path d="M2405 4829 c-341 -60 -644 -190 -913 -391 -96 -72 -116 -96 -106
-122 11 -29 63 -19 113 22 57 47 145 106 136 91 -4 -6 7 -3 24 5 30 16 42 36
21 36 -22 0 -8 20 18 26 15 4 86 35 157 70 184 89 441 174 463 152 11 -11 55
-1 47 11 -2 5 30 14 73 21 101 16 123 23 136 43 15 23 -4 51 -35 54 -13 1 -73
-7 -134 -18z"/>
<path d="M2905 4830 c-17 -19 -17 -21 0 -40 10 -11 30 -20 44 -20 32 -1 123
-24 117 -31 -2 -2 19 -4 47 -5 55 -1 227 -48 337 -91 105 -42 276 -130 365
-188 76 -51 115 -79 201 -149 36 -29 66 -33 84 -11 19 22 4 46 -65 103 -119
98 -349 234 -520 307 -127 54 -394 123 -536 140 -48 5 -58 3 -74 -15z"/>
<path d="M2495 4530 c-66 -11 -169 -34 -230 -51 -111 -30 -320 -113 -331 -130
-8 -13 79 -170 91 -165 68 32 227 92 290 111 110 32 269 57 335 53 l55 -3 3
-140 c3 -169 0 -185 -34 -185 -49 0 -170 -33 -242 -66 -167 -76 -251 -160
-388 -386 -45 -73 -119 -194 -164 -268 -204 -331 -256 -441 -281 -601 -16
-104 -6 -255 25 -362 125 -427 514 -709 1031 -746 l90 -6 3 -324 c2 -315 2
-324 -19 -358 -18 -28 -20 -39 -10 -59 6 -13 22 -30 36 -36 22 -10 30 -8 53 9
21 16 28 30 30 66 3 53 1 51 112 62 153 15 361 73 518 146 98 45 292 160 292
172 0 5 -20 35 -45 67 -36 47 -45 66 -45 99 0 33 5 43 33 62 41 29 73 57 163
143 56 52 74 76 76 100 l3 31 70 0 70 0 3 -31 c2 -20 19 -47 50 -80 41 -43 56
-51 121 -68 54 -13 84 -27 112 -53 56 -50 73 -42 136 64 127 214 211 435 262
688 42 207 40 255 -11 255 -25 0 -34 -26 -53 -150 -22 -138 -65 -303 -110
-420 -40 -104 -133 -290 -168 -333 l-22 -28 -45 24 c-25 14 -69 31 -97 38 -29
7 -53 16 -53 19 0 3 14 28 30 54 17 26 55 97 85 157 l55 108 -37 26 c-21 14
-41 25 -44 25 -4 0 -31 -16 -60 -35 -76 -50 -110 -54 -177 -21 -30 15 -56 26
-57 24 -2 -2 -26 -42 -54 -89 -28 -48 -62 -100 -76 -117 -14 -16 -25 -40 -25
-52 0 -26 -181 -210 -206 -210 -8 0 -39 22 -67 49 l-53 50 -100 -68 c-65 -45
-136 -82 -202 -107 -97 -37 -123 -58 -107 -84 3 -5 17 -10 30 -10 37 0 178 54
272 105 l84 45 39 -31 c37 -30 40 -36 40 -84 l0 -52 -92 -51 c-170 -94 -442
-181 -578 -185 l-65 -2 -3 223 -2 222 22 9 c13 4 48 11 79 14 161 19 373 96
515 189 383 250 537 732 363 1133 -29 66 -333 580 -445 751 -60 91 -163 193
-247 243 -73 43 -204 88 -287 98 l-65 8 -3 164 -3 164 103 -6 c231 -14 514
-114 729 -256 284 -188 524 -498 637 -822 39 -112 80 -293 88 -396 l7 -83 46
0 c42 0 51 4 90 44 l44 45 -7 78 c-26 288 -156 611 -350 868 -82 109 -272 298
-378 376 -368 271 -861 397 -1283 329z m385 -691 c25 -5 81 -27 126 -49 125
-61 188 -134 358 -421 76 -129 160 -268 186 -309 72 -114 136 -248 155 -324
25 -101 17 -294 -17 -394 -127 -368 -535 -602 -1011 -579 -388 19 -717 215
-849 504 -90 200 -90 404 0 597 21 44 130 234 242 421 168 279 216 352 270
406 69 70 160 122 255 145 62 15 224 17 285 3z"/>
<path d="M2618 3587 c-70 -30 -112 -64 -159 -131 -42 -60 -376 -611 -408 -673
-69 -136 -66 -300 7 -437 45 -85 163 -194 262 -242 129 -64 214 -84 367 -91
196 -9 319 15 476 93 151 75 257 191 298 327 32 103 24 228 -19 320 -51 109
-412 708 -455 754 -59 64 -133 96 -231 100 -68 3 -90 0 -138 -20z m-248 -737
c-11 -8 -8 -9 13 -4 23 5 34 0 67 -34 37 -37 40 -44 40 -95 0 -45 -5 -61 -26
-87 -39 -45 -79 -63 -127 -56 -58 10 -92 31 -111 70 -36 76 -8 162 64 198 38
20 107 26 80 8z m818 -4 c53 -28 75 -62 80 -124 4 -52 1 -61 -23 -90 -40 -48
-80 -65 -134 -59 -37 4 -52 13 -83 46 -34 36 -38 45 -38 95 0 48 4 60 32 92
18 20 41 40 52 44 33 13 84 11 114 -4z m-574 -416 c80 -70 167 -76 234 -16 51
46 73 51 105 25 21 -16 27 -29 27 -61 0 -35 -6 -47 -47 -88 -106 -106 -275
-106 -384 -1 -43 42 -49 52 -49 88 0 33 6 46 26 62 35 28 47 27 88 -9z"/>
<path d="M4340 4500 c-39 -39 -14 -110 39 -110 59 0 87 57 51 103 -26 32 -62
35 -90 7z"/>
<path d="M4110 4290 c0 -5 5 -10 10 -10 6 0 10 5 10 10 0 6 -4 10 -10 10 -5 0
-10 -4 -10 -10z"/>
<path d="M1745 4237 c-111 -81 -256 -213 -347 -319 -67 -77 -138 -174 -138
-187 0 -14 136 -104 148 -100 5 2 45 49 89 104 91 115 206 226 316 310 l77 57
-19 32 c-10 17 -31 52 -46 79 -15 26 -32 47 -38 47 -7 0 -25 -10 -42 -23z"/>
<path d="M4222 4168 c-22 -22 -13 -42 54 -123 36 -44 92 -120 125 -169 63 -94
128 -213 110 -201 -14 8 -14 1 2 -60 10 -39 18 -51 36 -53 26 -4 46 -45 91
-190 35 -113 65 -258 81 -392 11 -99 20 -120 49 -120 37 0 43 23 31 130 -36
327 -155 672 -311 901 -22 32 -42 70 -44 85 -3 14 -8 29 -12 33 -4 3 -4 -3 0
-14 4 -11 -8 -2 -26 20 -137 167 -157 182 -186 153z"/>
<path d="M990 4078 c-60 -31 -90 -77 -90 -140 0 -69 29 -121 83 -147 119 -58
237 11 237 138 0 80 -38 136 -109 160 -49 16 -71 14 -121 -11z"/>
<path d="M3193 4063 c-7 -2 -13 -15 -13 -27 0 -19 13 -29 68 -54 81 -36 288
-172 360 -236 57 -50 62 -52 80 -34 23 23 11 47 -53 105 -92 80 -194 148 -300
199 -98 46 -123 55 -142 47z"/>
<path d="M1917 3870 c-150 -121 -282 -275 -371 -434 -41 -73 -44 -91 -17 -105
26 -14 41 1 85 83 66 122 220 300 348 402 38 31 68 63 68 72 0 18 -18 42 -31
42 -4 0 -41 -27 -82 -60z"/>
<path d="M873 3672 c-19 -12 -78 -154 -117 -283 -38 -128 -70 -283 -90 -447
-12 -91 -12 -110 0 -129 16 -26 33 -29 56 -10 12 9 20 42 28 127 20 210 78
444 152 617 32 75 37 96 28 112 -11 22 -35 27 -57 13z"/>
<path d="M1172 3587 c-39 -49 -122 -258 -157 -396 -27 -110 -55 -287 -55 -355
l0 -46 94 0 93 0 6 88 c12 161 70 375 147 540 l39 82 -57 39 c-85 57 -98 63
-110 48z"/>
<path d="M3826 3483 c-4 -10 4 -32 22 -57 80 -113 157 -296 146 -343 -5 -17
-2 -30 7 -37 8 -6 16 -18 18 -26 2 -8 7 -29 11 -47 4 -18 20 -46 36 -62 28
-30 48 -33 38 -6 -4 8 -11 12 -18 8 -6 -4 -5 1 3 10 40 50 -73 390 -178 535
-33 45 -73 57 -85 25z"/>
<path d="M1421 3121 c-6 -11 -23 -69 -38 -128 -23 -95 -27 -129 -27 -278 -1
-129 4 -190 18 -255 10 -47 19 -94 21 -105 5 -46 34 -95 55 -95 33 0 34 24 9
128 -29 120 -29 160 3 444 27 247 26 301 -9 306 -14 2 -26 -4 -32 -17z m26
-203 c-3 -8 -6 -5 -6 6 -1 11 2 17 5 13 3 -3 4 -12 1 -19z m-10 -75 c-3 -10
-5 -4 -5 12 0 17 2 24 5 18 2 -7 2 -21 0 -30z m-10 -190 c-2 -27 -3 -5 -3 47
0 52 1 74 3 48 2 -27 2 -69 0 -95z"/>
<path d="M640 2801 c0 -11 4 -21 9 -21 18 0 21 18 6 30 -13 10 -15 9 -15 -9z"/>
<path d="M4572 2777 c-45 -47 -11 -127 53 -127 24 0 39 7 54 26 28 35 26 69
-4 99 -31 32 -74 33 -103 2z"/>
<path d="M663 2634 c-15 -41 39 -368 91 -541 58 -195 155 -397 274 -573 101
-150 130 -182 161 -178 47 5 39 43 -29 133 -61 79 -116 173 -112 188 4 16 -19
47 -30 41 -7 -4 -8 -2 -4 5 13 20 -3 61 -23 61 -32 0 -121 211 -181 430 -23
86 -25 104 -8 94 17 -11 1 56 -19 78 -9 10 -13 21 -10 24 3 4 2 14 -3 23 -4 9
-13 55 -19 101 -17 130 -17 130 -52 130 -18 0 -32 -6 -36 -16z m124 -306 c-3
-8 -6 -5 -6 6 -1 11 2 17 5 13 3 -3 4 -12 1 -19z"/>
<path d="M960 2618 c1 -88 73 -455 94 -476 6 -5 155 54 168 66 4 4 -2 39 -13
77 -25 90 -59 278 -59 327 l0 38 -95 0 -95 0 0 -32z"/>
<path d="M4321 2560 c-7 -51 -21 -121 -32 -157 l-18 -65 32 -46 c36 -52 103
-122 117 -122 18 0 74 217 85 331 l7 64 -40 39 c-33 32 -50 40 -90 44 l-49 4
-12 -92z"/>
<path d="M4048 2554 c-9 -19 -9 -30 -1 -44 7 -10 9 -28 7 -41 -5 -22 -4 -23 9
-6 8 9 26 17 41 17 35 0 54 38 38 75 -9 20 -19 25 -47 25 -28 0 -38 -5 -47
-26z"/>
<path d="M4086 2249 c-47 -37 -28 -119 30 -133 36 -9 79 9 93 40 16 36 14 49
-15 83 -31 37 -69 41 -108 10z"/>
<path d="M1188 2043 c-43 -20 -78 -40 -78 -45 0 -15 85 -179 126 -244 114
-180 302 -382 459 -492 178 -126 391 -223 605 -278 99 -25 301 -56 309 -48 3
2 5 45 5 96 l1 92 -89 13 c-242 35 -591 174 -664 264 -22 27 -51 42 -37 19 21
-34 -87 50 -178 140 -150 145 -239 265 -326 438 -23 45 -45 82 -49 81 -4 0
-42 -16 -84 -36z"/>
<path d="M1551 1966 c-27 -29 -22 -59 15 -83 20 -13 30 -14 49 -5 34 16 35 74
3 96 -30 21 -41 20 -67 -8z"/>
<path d="M1717 1783 c-18 -18 -1 -46 60 -102 170 -157 415 -277 664 -327 46
-9 98 -25 115 -35 37 -22 47 -24 41 -6 -2 6 3 20 11 30 30 34 4 50 -119 74
-114 22 -224 55 -214 65 3 3 -9 5 -27 6 -48 1 -243 102 -242 125 1 11 -12 25
-37 37 -45 23 -53 25 -43 8 4 -8 3 -10 -2 -5 -5 5 -9 14 -9 20 0 7 -8 12 -17
12 -10 0 -44 24 -77 53 -55 48 -88 62 -104 45z"/>
<path d="M3912 1539 l-103 -100 36 -49 c20 -28 39 -50 41 -50 2 0 22 29 44 64
22 34 65 87 96 116 l56 53 -34 33 -33 33 -103 -100z"/>
<path d="M4125 1462 c-83 -39 -128 -128 -106 -210 31 -118 147 -173 256 -123
98 45 133 148 84 249 -41 84 -150 123 -234 84z m123 -108 c29 -20 31 -85 2
-114 -30 -30 -83 -27 -109 6 -28 35 -26 69 4 99 28 29 70 32 103 9z"/>
<path d="M1324 1273 c-32 -38 -65 -74 -71 -81 -17 -17 -17 -35 0 -29 6 2 11
10 9 16 -1 7 8 5 23 -5 24 -16 25 -15 90 47 65 62 76 84 53 107 -23 23 -46 11
-104 -55z"/>
<path d="M4085 1120 c3 -5 8 -10 11 -10 2 0 4 5 4 10 0 6 -5 10 -11 10 -5 0
-7 -4 -4 -10z"/>
<path d="M1060 1082 c-35 -35 -38 -64 -11 -109 11 -17 17 -40 14 -52 -3 -12
-1 -21 5 -21 13 0 35 27 25 32 -4 3 -2 3 5 1 25 -6 81 26 95 54 26 49 -9 107
-71 119 -26 5 -36 1 -62 -24z"/>
<path d="M1470 1085 c-18 -21 -4 -50 38 -78 292 -197 692 -349 987 -374 66 -5
75 -4 81 12 9 23 -7 48 -37 57 -13 4 -89 19 -168 33 -255 46 -529 156 -752
300 -103 67 -128 75 -149 50z"/>
<path d="M3845 1030 c-44 -27 -85 -50 -91 -50 -6 0 -23 -9 -37 -20 -14 -11
-32 -17 -40 -14 -8 3 -18 1 -22 -5 -3 -7 0 -8 10 -5 11 4 14 2 10 -9 -7 -16
-368 -157 -400 -156 -11 0 -45 -6 -76 -15 -31 -9 -106 -24 -167 -35 -60 -10
-115 -22 -121 -25 -14 -9 -14 -49 -1 -62 13 -13 158 5 300 37 214 48 489 165
678 289 92 60 107 81 80 108 -20 20 -40 14 -123 -38z"/>
<path d="M4346 1044 c-18 -18 -21 -56 -6 -85 14 -25 71 -26 93 -1 37 40 9 102
-46 102 -14 0 -33 -7 -41 -16z"/>
<path d="M4306 935 c-10 -8 -24 -16 -30 -18 -6 -2 -8 -7 -5 -11 9 -10 81 23
74 34 -8 13 -16 12 -39 -5z"/>
<path d="M2875 619 c-4 -6 -5 -12 -2 -15 7 -7 37 7 37 17 0 13 -27 11 -35 -2z"/>
</g>
</svg>
